<svg width="13" height="15" viewBox="0 0 13 15" fill="none" xmlns="http://www.w3.org/2000/svg">
<path d="M9.07178 0.555664C9.10564 0.555664 9.13949 0.555664 9.17526 0.555664C9.25829 1.55865 8.86676 2.30807 8.39091 2.85078C7.92401 3.38974 7.28466 3.91247 6.25058 3.83315C6.1816 2.84453 6.57377 2.15069 7.04897 1.60923C7.48969 1.10462 8.29766 0.655587 9.07178 0.555664Z" fill="#2B2A29"/>
<path d="M12.2021 10.9953C12.2021 11.0053 12.2021 11.014 12.2021 11.0234C11.9115 11.884 11.497 12.6215 10.9911 13.306C10.5293 13.9274 9.96343 14.7637 8.95299 14.7637C8.07986 14.7637 7.49991 14.2147 6.60507 14.1997C5.6585 14.1847 5.13794 14.6587 4.27249 14.778C4.17348 14.778 4.07448 14.778 3.9774 14.778C3.34188 14.6881 2.82899 14.196 2.45534 13.7526C1.35356 12.4423 0.502151 10.7499 0.34375 8.58402C0.34375 8.37168 0.34375 8.15997 0.34375 7.94763C0.410815 6.39757 1.18111 5.13728 2.20497 4.5265C2.74532 4.20175 3.48814 3.92509 4.31528 4.04874C4.66977 4.10245 5.03192 4.22111 5.34936 4.33852C5.65019 4.45156 6.0264 4.65203 6.3828 4.64141C6.62423 4.63454 6.86439 4.51151 7.10774 4.4247C7.82055 4.17302 8.5193 3.88449 9.44033 4.02001C10.5472 4.18364 11.3328 4.66452 11.8183 5.40645C10.8819 5.98913 10.1416 6.86721 10.2681 8.36668C10.3805 9.72877 11.1904 10.5257 12.2021 10.9953Z" fill="#2B2A29"/>
</svg>
