<svg width="25" height="25" viewBox="0 0 25 25" fill="none" xmlns="http://www.w3.org/2000/svg">
<g clip-path="url(#clip0_5021_1502)">
<path d="M24.4792 10.4166H20.0657L14.4918 2.3091C14.3291 2.07209 14.005 2.01257 13.7675 2.17482C13.5305 2.33811 13.4705 2.66208 13.6333 2.89909L18.8015 10.4166H6.19849L11.3668 2.89914C11.5295 2.66213 11.4695 2.33811 11.2325 2.17487C10.9965 2.01262 10.672 2.07214 10.5083 2.30915L4.93433 10.4166H0.52085C0.232959 10.4166 0 10.6496 0 10.9375C0 11.2254 0.232959 11.4583 0.52085 11.4583H1.18164L4.36558 21.4651C4.64228 22.3333 5.4398 22.9167 6.35073 22.9167H18.6493C19.5603 22.9167 20.3578 22.3333 20.6345 21.4645L23.8184 11.4583H24.4792C24.7671 11.4583 25 11.2254 25 10.9375C25 10.6496 24.767 10.4166 24.4792 10.4166ZM19.6416 21.1486C19.5033 21.583 19.1045 21.875 18.6493 21.875H6.35073C5.89551 21.875 5.49673 21.583 5.3584 21.1491L2.27485 11.4583H22.7252L19.6416 21.1486Z" fill="#2B2A29"/>
</g>
<defs>
<clipPath id="clip0_5021_1502">
<rect width="25" height="25" fill="white"/>
</clipPath>
</defs>
</svg>
