<svg width="50" height="50" viewBox="0 0 50 50" fill="none" xmlns="http://www.w3.org/2000/svg">
<rect x="0.5" y="0.5" width="49" height="49" rx="24.5" stroke="#2B2A29"/>
<path d="M31.0128 19.9345L28.1159 14.1946V12.8723H28.2754C28.5398 12.8723 28.7542 12.6581 28.7542 12.3936V10.4787C28.7542 10.2143 28.5398 10 28.2754 10H21.364C21.0996 10 20.8852 10.2143 20.8852 10.4787V12.3936C20.8852 12.6581 21.0996 12.8723 21.364 12.8723H21.5235V14.1946L18.6266 19.9345C18.2752 20.6306 18 21.7867 18 22.5664V38.2447C18 39.2125 18.7874 40 19.7553 40H29.884C30.8519 40 31.6393 39.2125 31.6393 38.2447V22.5664C31.6393 21.7866 31.3642 20.6306 31.0128 19.9345ZM21.8427 10.9574H27.7966V11.9149H21.8427V10.9574ZM22.4297 14.5242C22.4634 14.4573 22.481 14.3834 22.481 14.3085V12.8723H27.1584V14.3085C27.1584 14.3834 27.1759 14.4573 27.2097 14.5242L29.0316 18.134C28.6862 18.2459 28.4441 18.4265 28.2345 18.5831C27.9503 18.7956 27.745 18.9491 27.2872 18.9491C26.8294 18.9491 26.6241 18.7956 26.3399 18.5831C26.0083 18.3352 25.5955 18.0266 24.8193 18.0266C24.0432 18.0266 23.6305 18.3352 23.2988 18.5832C23.0147 18.7956 22.8094 18.9491 22.3517 18.9491C21.894 18.9491 21.6887 18.7956 21.4046 18.5832C21.1951 18.4266 20.953 18.246 20.6077 18.134L22.4297 14.5242V14.5242ZM30.6819 38.2447C30.6819 38.6847 30.324 39.0426 29.884 39.0426H19.7554C19.3154 39.0426 18.9575 38.6847 18.9575 38.2447V22.5664C18.9575 21.9362 19.1974 20.9285 19.4814 20.3658L20.1666 19.0081C20.4414 19.059 20.6134 19.187 20.8314 19.3499C21.163 19.5979 21.5758 19.9065 22.3518 19.9065C23.1279 19.9065 23.5407 19.5979 23.8723 19.3499C24.1564 19.1375 24.3617 18.984 24.8194 18.984C25.2772 18.984 25.4825 19.1375 25.7667 19.35C26.0983 19.598 26.5111 19.9065 27.2872 19.9065C28.0634 19.9065 28.4761 19.5979 28.8078 19.35C29.0259 19.187 29.1979 19.059 29.4728 19.0081L30.158 20.3659C30.4419 20.9284 30.6819 21.9362 30.6819 22.5664V38.2447V38.2447Z" fill="#2B2A29"/>
<path d="M20.3938 35.2126C20.1294 35.2126 19.915 35.4269 19.915 35.6914V37.6063C19.915 37.8707 20.1294 38.085 20.3938 38.085C20.6581 38.085 20.8725 37.8707 20.8725 37.6063V35.6914C20.8725 35.4269 20.6581 35.2126 20.3938 35.2126Z" fill="#2B2A29"/>
<path d="M20.9793 20.5856C20.7432 20.4665 20.4554 20.5612 20.3362 20.7972C20.1236 21.2184 19.915 22.0946 19.915 22.5664V33.7766C19.915 34.041 20.1294 34.2553 20.3938 34.2553C20.6581 34.2553 20.8725 34.041 20.8725 33.7766V22.5664C20.8725 22.2427 21.0451 21.5176 21.1909 21.2287C21.31 20.9927 21.2152 20.7047 20.9793 20.5856Z" fill="#2B2A29"/>
<path d="M23.9172 14.7873H25.7222C25.9866 14.7873 26.2009 14.573 26.2009 14.3086C26.2009 14.0441 25.9866 13.8298 25.7222 13.8298H23.9172C23.6528 13.8298 23.4385 14.0441 23.4385 14.3086C23.4385 14.573 23.6528 14.7873 23.9172 14.7873Z" fill="#2B2A29"/>
</svg>
