<svg width="20" height="20" viewBox="0 0 20 20" fill="none" xmlns="http://www.w3.org/2000/svg">
<path d="M17.5008 3.12402H5.00518C4.31507 3.12402 3.75562 3.68348 3.75562 4.37358C3.75562 5.06369 4.31507 5.62315 5.00518 5.62315H17.5008C18.1909 5.62315 18.7503 5.06369 18.7503 4.37358C18.7503 3.68348 18.1909 3.12402 17.5008 3.12402Z" fill="#666723"/>
<path d="M2.50612 4.37321C2.50471 4.04234 2.37214 3.72554 2.1375 3.49226C1.65013 3.00779 0.862988 3.00779 0.37562 3.49226C0.140937 3.72554 0.0083662 4.04234 0.00699949 4.37321C-0.00233316 4.45415 -0.00233316 4.53592 0.00699949 4.61687C0.0211351 4.69829 0.0441739 4.77791 0.0757253 4.85429C0.109268 4.92828 0.148981 4.99935 0.194434 5.06671C0.239301 5.13676 0.291665 5.2017 0.350629 5.26039C0.407484 5.31701 0.470313 5.36731 0.538063 5.41034C0.60386 5.45825 0.675202 5.49812 0.750488 5.52905C0.83331 5.572 0.9216 5.60355 1.0129 5.62277C1.09384 5.63183 1.17561 5.63183 1.25656 5.62277C1.58652 5.62304 1.90321 5.49277 2.1375 5.26039C2.19646 5.2017 2.24883 5.13676 2.2937 5.06671C2.33915 4.99935 2.37886 4.92828 2.4124 4.85429C2.45227 4.77884 2.48371 4.69922 2.50612 4.61687C2.51545 4.53592 2.51545 4.45415 2.50612 4.37321Z" fill="#666723"/>
<path d="M2.5062 9.99624C2.5155 9.9153 2.5155 9.83353 2.5062 9.75258C2.48461 9.67195 2.45313 9.59432 2.41248 9.52141C2.38031 9.44476 2.34052 9.37151 2.29378 9.30274C2.25047 9.23347 2.19791 9.17041 2.13758 9.11531C1.65021 8.63083 0.863068 8.63083 0.3757 9.11531C0.141017 9.34859 0.00844679 9.66539 0.00708008 9.99624C0.0095011 10.1609 0.0412477 10.3238 0.100797 10.4773C0.132114 10.5512 0.169757 10.6223 0.213258 10.6897C0.26078 10.7577 0.315214 10.8205 0.3757 10.8772C0.430915 10.9374 0.49394 10.99 0.563135 11.0334C0.628932 11.0813 0.700235 11.1212 0.77556 11.1521C0.851744 11.1841 0.931443 11.2072 1.01298 11.2208C1.09291 11.2387 1.17472 11.2471 1.25664 11.2458C1.33759 11.2551 1.41936 11.2551 1.50031 11.2458C1.57981 11.2322 1.65744 11.2091 1.73147 11.1771C1.80883 11.1464 1.88224 11.1065 1.95015 11.0584C2.01934 11.0149 2.08237 10.9624 2.13758 10.9022C2.19779 10.847 2.25035 10.7839 2.29378 10.7147C2.34181 10.649 2.38168 10.5777 2.41248 10.5023C2.45516 10.4194 2.48668 10.3311 2.5062 10.2399C2.51581 10.159 2.51581 10.0772 2.5062 9.99624Z" fill="#666723"/>
<path d="M2.50628 15.6193C2.51553 15.5384 2.51553 15.4566 2.50628 15.3756C2.48468 15.293 2.45321 15.2133 2.41256 15.1382C2.37902 15.0642 2.33931 14.9932 2.29385 14.9258C2.25043 14.8566 2.19787 14.7936 2.13766 14.7384C1.65029 14.2539 0.863145 14.2539 0.375777 14.7384C0.315564 14.7936 0.263004 14.8566 0.219582 14.9258C0.174129 14.9932 0.134417 15.0642 0.100874 15.1382C0.0684632 15.2143 0.0453854 15.294 0.0321479 15.3756C0.0145369 15.4556 0.00618046 15.5374 0.00715668 15.6193C0.00856243 15.9502 0.141133 16.267 0.375777 16.5002C0.430992 16.5605 0.494017 16.613 0.563211 16.6564C0.629008 16.7044 0.700311 16.7443 0.775637 16.7751C0.851821 16.8072 0.931519 16.8303 1.01305 16.8439C1.09299 16.8618 1.17479 16.8702 1.25672 16.8689C1.33767 16.8782 1.41943 16.8782 1.50038 16.8689C1.57988 16.8552 1.65751 16.8322 1.73155 16.8001C1.80891 16.7694 1.88232 16.7296 1.95022 16.6814C2.01942 16.638 2.08244 16.5854 2.13766 16.5252C2.19787 16.47 2.25043 16.407 2.29385 16.3378C2.34192 16.2721 2.38179 16.2007 2.41256 16.1254C2.4552 16.0424 2.48671 15.9542 2.50628 15.863C2.51588 15.782 2.51588 15.7002 2.50628 15.6193Z" fill="#666723"/>
<path d="M18.7503 8.74707H5.00518C4.31507 8.74707 3.75562 9.30652 3.75562 9.99663C3.75562 10.6867 4.31507 11.2462 5.00518 11.2462H18.7503C19.4405 11.2462 19.9999 10.6867 19.9999 9.99663C19.9999 9.30652 19.4405 8.74707 18.7503 8.74707Z" fill="#666723"/>
<path d="M13.1273 14.3701H5.00518C4.31507 14.3701 3.75562 14.9296 3.75562 15.6197C3.75562 16.3098 4.31507 16.8692 5.00518 16.8692H13.1273C13.8174 16.8692 14.3769 16.3098 14.3769 15.6197C14.3769 14.9296 13.8174 14.3701 13.1273 14.3701Z" fill="#666723"/>
</svg>
