<svg width="28" height="24" viewBox="0 0 28 24" fill="none" xmlns="http://www.w3.org/2000/svg">
<path d="M21.9457 23.3512H6.05384C5.75278 23.3512 5.46405 23.2487 5.25117 23.0662C5.0383 22.8838 4.9187 22.6363 4.9187 22.3782V2.91877C4.9187 2.66073 5.0383 2.41325 5.25117 2.23078C5.46405 2.04831 5.75278 1.9458 6.05384 1.9458H9.45924C9.55959 1.9458 9.65584 1.97997 9.7268 2.04079C9.79776 2.10162 9.83762 2.18411 9.83762 2.27013C9.83762 2.35614 9.79776 2.43863 9.7268 2.49946C9.65584 2.56028 9.55959 2.59445 9.45924 2.59445H6.05384C5.95348 2.59445 5.85724 2.62862 5.78628 2.68944C5.71532 2.75026 5.67546 2.83276 5.67546 2.91877V22.3782C5.67546 22.4642 5.71532 22.5467 5.78628 22.6076C5.85724 22.6684 5.95348 22.7026 6.05384 22.7026H21.9457C22.0461 22.7026 22.1423 22.6684 22.2133 22.6076C22.2842 22.5467 22.3241 22.4642 22.3241 22.3782V2.91877C22.3241 2.83276 22.2842 2.75026 22.2133 2.68944C22.1423 2.62862 22.0461 2.59445 21.9457 2.59445H18.5403C18.44 2.59445 18.3437 2.56028 18.2728 2.49946C18.2018 2.43863 18.1619 2.35614 18.1619 2.27013C18.1619 2.18411 18.2018 2.10162 18.2728 2.04079C18.3437 1.97997 18.44 1.9458 18.5403 1.9458H21.9457C22.2468 1.9458 22.5355 2.04831 22.7484 2.23078C22.9613 2.41325 23.0809 2.66073 23.0809 2.91877V22.3782C23.0809 22.6363 22.9613 22.8838 22.7484 23.0662C22.5355 23.2487 22.2468 23.3512 21.9457 23.3512Z" fill="#2B2A29"/>
<path d="M18.1621 3.89168H9.83781C9.63711 3.89168 9.44462 3.82334 9.3027 3.7017C9.16078 3.58005 9.08105 3.41506 9.08105 3.24303V1.29709C9.08105 1.12505 9.16078 0.960067 9.3027 0.838422C9.44462 0.716777 9.63711 0.648438 9.83781 0.648438H18.1621C18.3628 0.648438 18.5553 0.716777 18.6972 0.838422C18.8391 0.960067 18.9189 1.12505 18.9189 1.29709V3.24303C18.9189 3.41506 18.8391 3.58005 18.6972 3.7017C18.5553 3.82334 18.3628 3.89168 18.1621 3.89168ZM18.1621 1.29709H9.83781V3.24303H18.1621V1.29709Z" fill="#2B2A29"/>
<path d="M20.4865 9.64864H8.37838C8.27803 9.64864 8.18178 9.61447 8.11082 9.55365C8.03986 9.49283 8 9.41034 8 9.32432C8 9.23831 8.03986 9.15581 8.11082 9.09499C8.18178 9.03417 8.27803 9 8.37838 9H20.4865C20.5868 9 20.6831 9.03417 20.754 9.09499C20.825 9.15581 20.8649 9.23831 20.8649 9.32432C20.8649 9.41034 20.825 9.49283 20.754 9.55365C20.6831 9.61447 20.5868 9.64864 20.4865 9.64864Z" fill="#2B2A29"/>
<path d="M20.4865 14.2971H8.37838C8.27803 14.2971 8.18178 14.2629 8.11082 14.2021C8.03986 14.1413 8 14.0588 8 13.9728C8 13.8867 8.03986 13.8043 8.11082 13.7434C8.18178 13.6826 8.27803 13.6484 8.37838 13.6484H20.4865C20.5868 13.6484 20.6831 13.6826 20.754 13.7434C20.825 13.8043 20.8649 13.8867 20.8649 13.9728C20.8649 14.0588 20.825 14.1413 20.754 14.2021C20.6831 14.2629 20.5868 14.2971 20.4865 14.2971Z" fill="#2B2A29"/>
<path d="M20.4865 18.946H8.37838C8.27803 18.946 8.18178 18.9119 8.11082 18.851C8.03986 18.7902 8 18.7077 8 18.6217C8 18.5357 8.03986 18.4532 8.11082 18.3924C8.18178 18.3315 8.27803 18.2974 8.37838 18.2974H20.4865C20.5868 18.2974 20.6831 18.3315 20.754 18.3924C20.825 18.4532 20.8649 18.5357 20.8649 18.6217C20.8649 18.7077 20.825 18.7902 20.754 18.851C20.6831 18.9119 20.5868 18.946 20.4865 18.946Z" fill="#2B2A29"/>
</svg>
