<svg width="15" height="15" viewBox="0 0 15 15" fill="none" xmlns="http://www.w3.org/2000/svg">
<g clip-path="url(#clip0_5223_13126)">
<path d="M3.08139 0.671788C2.52907 0.36425 1.88058 0.371361 1.33179 0.676232L7.76378 6.65367L9.92454 4.47691L3.08139 0.671788Z" fill="#2B2A29"/>
<path d="M0.688695 1.28784C0.531645 1.54649 0.44165 1.84248 0.44165 2.15624V12.9521C0.44165 13.2561 0.523705 13.5458 0.671931 13.7991L7.14009 7.28306L0.688695 1.28784Z" fill="#2B2A29"/>
<path d="M12.7895 6.06979L10.7284 4.92407L8.41235 7.25639L11.2507 9.89357L12.7903 9.03762C13.3444 8.7283 13.6762 8.17367 13.6762 7.55326C13.6753 6.93285 13.3444 6.37821 12.7895 6.06979Z" fill="#2B2A29"/>
<path d="M7.78854 7.8855L1.30273 14.4194C1.58419 14.5811 1.893 14.6664 2.20357 14.6664C2.50355 14.6664 2.8053 14.59 3.08146 14.4362L10.4372 10.3467L7.78854 7.8855Z" fill="#2B2A29"/>
</g>
<defs>
<clipPath id="clip0_5223_13126">
<rect width="14.1176" height="14.2222" fill="white" transform="translate(0 0.444336)"/>
</clipPath>
</defs>
</svg>
