<svg width="35" height="35" viewBox="0 0 35 35" fill="none" xmlns="http://www.w3.org/2000/svg">
<g clip-path="url(#clip0_1_12)">
<path d="M16.5519 15.5417C17.4005 14.6212 17.8681 13.3864 17.8681 12.0646C17.8681 9.5478 16.0704 7 12.634 7C11.0347 7 9.68554 7.5493 8.73212 8.58848C7.88759 9.50911 7.42261 10.7436 7.42261 12.0646C7.42261 14.5817 9.21267 17.1293 12.634 17.1293C14.2392 17.1294 15.5942 16.5805 16.5519 15.5417ZM12.634 9.35487C14.5169 9.35487 15.3744 10.7604 15.3744 12.0664C15.3744 12.7768 15.1353 13.4344 14.7009 13.9179C14.2162 14.458 13.5118 14.7435 12.6645 14.7435C10.734 14.7435 9.85453 13.3381 9.85453 12.0323C9.85453 10.6998 10.7141 9.35487 12.634 9.35487Z" fill="#E8505B"/>
<path d="M25.1318 8.95364C24.8204 8.95927 24.3952 9.15344 24.1869 9.385L8.72776 26.5729C8.51953 26.8046 8.66704 27.1294 8.97847 27.1294H11.0018C11.3132 27.1294 11.738 26.9395 11.9459 26.7076L27.3095 9.52318C27.5173 9.29107 27.5035 8.91344 26.9889 8.91357L25.1318 8.95364Z" fill="#E8505B"/>
<path d="M23.4422 19.0635C21.8738 19.0635 20.5503 19.6026 19.6149 20.622C18.7865 21.5248 18.3301 22.736 18.3301 24.0319C18.3301 26.5008 20.0861 29.0002 23.4423 29.0002C25.0174 29.0002 26.3463 28.4616 27.2859 27.4426C28.1185 26.5396 28.577 25.3283 28.577 24.0319C28.5769 21.563 26.8133 19.0635 23.4422 19.0635ZM23.4725 26.7202C21.5943 26.7202 20.7385 25.3098 20.7385 23.9999C20.7385 23.2866 20.9774 22.6265 21.4115 22.1411C21.8955 21.5995 22.5976 21.3132 23.4423 21.3132C25.3207 21.3132 26.176 22.7234 26.176 24.0337C26.176 24.7469 25.9371 25.4071 25.5033 25.8925C25.0192 26.434 24.317 26.7202 23.4725 26.7202Z" fill="#E8505B"/>
</g>
<g clip-path="url(#clip1_1_12)">
<path d="M17.7729 34.5998C27.0661 34.5998 34.5998 27.0661 34.5998 17.7729C34.5998 8.47962 27.0661 0.945953 17.7729 0.945953C8.47962 0.945953 0.945953 8.47962 0.945953 17.7729C0.945953 27.0661 8.47962 34.5998 17.7729 34.5998Z" stroke="#A80303"/>
</g>
<defs>
<clipPath id="clip0_1_12">
<rect width="22" height="22" fill="white" transform="translate(7 7)"/>
</clipPath>
<clipPath id="clip1_1_12">
<rect width="35" height="35" fill="white"/>
</clipPath>
</defs>
</svg>
