<svg width="15" height="15" viewBox="0 0 15 15" fill="none" xmlns="http://www.w3.org/2000/svg">
<g clip-path="url(#clip0_5223_13113)">
<path d="M2.19727 15H12.8027C14.0143 15 15 14.0143 15 12.8027V2.19727C15 0.98568 14.0143 0 12.8027 0H2.19727C0.98568 0 0 0.98568 0 2.19727V12.8027C0 14.0143 0.98568 15 2.19727 15ZM0.878906 2.19727C0.878906 1.47034 1.47034 0.878906 2.19727 0.878906H12.8027C13.5297 0.878906 14.1211 1.47034 14.1211 2.19727V12.8027C14.1211 13.5297 13.5297 14.1211 12.8027 14.1211H2.19727C1.47034 14.1211 0.878906 13.5297 0.878906 12.8027V2.19727Z" fill="#2B2A29"/>
<path d="M7.5 11.4551C9.68079 11.4551 11.4551 9.68079 11.4551 7.5C11.4551 5.31921 9.68079 3.54492 7.5 3.54492C5.31921 3.54492 3.54492 5.31921 3.54492 7.5C3.54492 9.68079 5.31921 11.4551 7.5 11.4551ZM7.5 4.42383C9.19624 4.42383 10.5762 5.80376 10.5762 7.5C10.5762 9.19624 9.19624 10.5762 7.5 10.5762C5.80376 10.5762 4.42383 9.19624 4.42383 7.5C4.42383 5.80376 5.80376 4.42383 7.5 4.42383Z" fill="#2B2A29"/>
<path d="M11.8945 4.42383C12.6215 4.42383 13.2129 3.8324 13.2129 3.10547C13.2129 2.37854 12.6215 1.78711 11.8945 1.78711C11.1676 1.78711 10.5762 2.37854 10.5762 3.10547C10.5762 3.8324 11.1676 4.42383 11.8945 4.42383ZM11.8945 2.66602C12.1368 2.66602 12.334 2.8632 12.334 3.10547C12.334 3.34774 12.1368 3.54492 11.8945 3.54492C11.6523 3.54492 11.4551 3.34774 11.4551 3.10547C11.4551 2.8632 11.6523 2.66602 11.8945 2.66602Z" fill="#2B2A29"/>
</g>
<defs>
<clipPath id="clip0_5223_13113">
<rect width="15" height="15" fill="white"/>
</clipPath>
</defs>
</svg>
