<svg width="23" height="23" viewBox="0 0 23 23" fill="none" xmlns="http://www.w3.org/2000/svg">
<path d="M11.5007 3.84353e-10C9.06986 -1.98673e-05 6.70155 0.770202 4.73575 2.20009C2.76994 3.62998 1.30774 5.64599 0.559064 7.95871C-0.189612 10.2714 -0.186261 12.7619 0.568638 15.0726C1.32354 17.3833 2.79116 19.3954 4.7608 20.82L4.77138 20.8273L4.77335 20.8288C6.7322 22.2404 9.08548 23 11.4999 23C13.9144 23 16.2677 22.2404 18.2265 20.8288L18.2378 20.8209C20.2077 19.3966 21.6756 17.3847 22.4309 15.0741C23.1861 12.7635 23.1898 10.273 22.4414 7.96015C21.693 5.64731 20.2311 3.63108 18.2654 2.20093C16.2998 0.770781 13.9315 0.000264444 11.5007 3.84353e-10ZM5.44463 20.2461V19.502C5.44418 18.7662 5.58872 18.0375 5.87001 17.3576C6.15129 16.6777 6.5638 16.0599 7.08396 15.5395C7.60412 15.0191 8.22172 14.6063 8.90149 14.3247C9.58125 14.0431 10.3098 13.8982 11.0456 13.8983H11.4724H11.5007C11.5007 13.8983 11.5194 13.8983 11.529 13.8983H11.9557C12.6915 13.8982 13.4201 14.0431 14.0999 14.3247C14.7796 14.6063 15.3972 15.0191 15.9174 15.5395C16.4375 16.0599 16.85 16.6777 17.1313 17.3576C17.4126 18.0375 17.5572 18.7662 17.5567 19.502V20.2461C15.7777 21.4786 13.6649 22.139 11.5007 22.139C9.33641 22.139 7.22367 21.4786 5.44463 20.2461ZM11.529 13.0386H11.4724C10.4635 13.0344 9.49732 12.631 8.785 11.9166C8.07268 11.2021 7.67216 10.2347 7.671 9.22579C7.671 9.1274 7.67518 9.02752 7.68355 8.92716C7.7628 7.96898 8.19949 7.07565 8.90691 6.42456C9.61433 5.77347 10.5407 5.41225 11.5022 5.41262C12.4636 5.41299 13.3897 5.77493 14.0966 6.42657C14.8035 7.0782 15.2395 7.97187 15.318 8.93011C15.3262 9.02851 15.3303 9.1269 15.3303 9.2253C15.3292 10.2342 14.9287 11.2016 14.2163 11.9161C13.504 12.6306 12.5378 13.034 11.529 13.0381V13.0386ZM18.4176 19.5785V19.502C18.4184 18.1075 17.9679 16.7502 17.1335 15.6329C16.2991 14.5157 15.1256 13.6984 13.7883 13.3033C14.5161 12.8996 15.1226 12.3085 15.545 11.5913C15.9674 10.8742 16.1903 10.0571 16.1905 9.22481C16.1905 9.10181 16.1854 8.97882 16.1753 8.85976C16.0796 7.68573 15.5458 6.59067 14.6799 5.79217C13.8139 4.99366 12.6793 4.55015 11.5014 4.54978C10.3235 4.54941 9.18863 4.9922 8.3222 5.79016C7.45577 6.58812 6.92124 7.68284 6.82483 8.85681C6.8145 8.97759 6.80933 9.10132 6.80933 9.22579C6.8097 10.0581 7.0328 10.8752 7.45548 11.5922C7.87815 12.3092 8.485 12.9 9.21305 13.3033C7.87575 13.6984 6.7022 14.5156 5.86778 15.6329C5.03337 16.7502 4.5829 18.1075 4.5837 19.502V19.5785C2.93156 18.1646 1.75232 16.2785 1.20479 14.174C0.657261 12.0695 0.767733 9.84778 1.52133 7.808C2.27493 5.76822 3.63546 4.00835 5.4197 2.7654C7.20394 1.52245 9.3262 0.856103 11.5007 0.856103C13.6751 0.856103 15.7974 1.52245 17.5816 2.7654C19.3659 4.00835 20.7264 5.76822 21.48 7.808C22.2336 9.84778 22.3441 12.0695 21.7966 14.174C21.249 16.2785 20.0698 18.1646 18.4176 19.5785Z" fill="#2B2A29"/>
</svg>
