<svg width="16" height="16" viewBox="0 0 16 16" fill="none" xmlns="http://www.w3.org/2000/svg">
<path d="M15.8046 14.862L11.2547 10.312C12.136 9.22334 12.6667 7.84 12.6667 6.33334C12.6667 2.84134 9.82531 0 6.33331 0C2.84131 0 0 2.84131 0 6.33331C0 9.82531 2.84134 12.6667 6.33334 12.6667C7.84 12.6667 9.22334 12.136 10.312 11.2547L14.862 15.8047C14.992 15.9347 15.1626 16 15.3333 16C15.504 16 15.6747 15.9347 15.8047 15.8047C16.0653 15.544 16.0653 15.1227 15.8046 14.862ZM6.33334 11.3333C3.576 11.3333 1.33334 9.09066 1.33334 6.33331C1.33334 3.57597 3.576 1.33331 6.33334 1.33331C9.09068 1.33331 11.3333 3.57597 11.3333 6.33331C11.3333 9.09066 9.09065 11.3333 6.33334 11.3333Z" fill="#787878"/>
</svg>
