<svg width="50" height="32" viewBox="0 0 50 32" fill="none" xmlns="http://www.w3.org/2000/svg">
<path fill-rule="evenodd" clip-rule="evenodd" d="M48.6745 10.1677C47.4457 7.67561 45.3633 6.03078 42.6371 5.3909C41.8663 5.21006 41.0347 5.19777 40.2352 5.07676C39.5811 4.97778 38.6907 4.72212 38.3167 4.33775C38.6036 3.26891 40.5019 1.53777 40.6144 0.9854C40.2939 0.628416 39.4071 0 38.9336 0C38.3188 0.625477 38.1658 0.722794 37.6447 1.49455C36.3353 3.43412 36.0418 3.0843 33.7626 2.32945C32.8434 2.02497 32.3455 1.9137 31.2698 1.89325C28.4494 1.83961 25.5137 2.62857 23.0829 3.93625C21.8187 4.6162 21.3042 5.66851 20.4943 5.77021C19.7185 5.86768 18.8752 5.38501 17.9379 5.41202C15.9233 5.47003 12.7933 6.32824 11.5256 7.78085C11.1084 8.25899 10.591 8.88726 10.0624 9.24862C8.73012 10.1593 6.50227 9.0662 4.89157 9.46136C4.40548 11.2126 5.1359 13.6048 4.90414 15.7601C4.8299 16.4517 4.91748 17.1954 4.07629 17.1696C3.43383 15.8914 3.86363 10.5408 3.43641 9.70496L0 9.70216C0.157585 15.9625 0.211982 22.2357 0.354869 28.5017C0.914067 28.5827 3.92348 28.2403 4.28115 28.0118C4.78588 27.4208 3.925 25.6273 4.82202 25.5493C5.88579 25.4568 5.14673 27.4205 5.51736 28.0225C6.09595 28.268 8.26722 27.8033 8.99749 27.709C11.5126 27.384 11.8164 27.77 13.536 28.8461C14.4239 29.4017 17.0521 29.9772 18.1201 30.1779C22.5592 31.012 28.0376 31.3468 32.6528 30.9527C37.3776 30.5491 41.9385 29.03 44.7835 26.4981C47.1318 24.4083 48.9203 21.8003 49.6644 18.6504C50.3419 15.7812 49.9846 12.8246 48.6745 10.1677Z" fill="#2B2A29"/>
<path fill-rule="evenodd" clip-rule="evenodd" d="M16.4847 19.4575C16.9219 17.7481 16.0455 15.6252 17.8916 15.7754C17.9434 16.827 18.4605 18.2309 18.3491 19.2174C17.6566 19.2501 17.1624 19.452 16.4847 19.4575ZM5.37047 10.1925C5.44411 10.8817 5.54904 13.502 5.49706 14.4477C5.46146 15.0953 5.57033 16.5753 5.60404 17.3053C5.16333 17.5204 3.76242 17.9071 3.22519 18.0211C3.17186 15.4624 3.0273 12.8228 2.87063 10.2841C2.12536 10.2365 1.39054 10.4461 0.720579 10.3028L0.714593 10.51C0.632846 16.1454 0.895286 22.4217 1.0728 27.9163C2.04346 27.7886 2.721 27.5652 3.81818 27.5672L3.83659 24.9578C4.56459 24.9269 5.2397 24.8579 5.94997 24.8278C5.9777 25.6899 6.10407 26.4885 6.08725 27.3263C9.52093 27.2251 12.9331 26.8137 16.3323 26.6176C16.4471 26.4182 16.5613 26.1309 16.661 25.8899C16.7795 25.6029 16.935 25.404 17.0283 25.1947C18.3451 25.1852 18.5718 24.959 19.1959 24.9528C19.3783 25.3598 19.3252 26.1383 19.3244 26.6124C22.7259 26.4143 26.1226 26.4036 29.5352 26.279C30.8047 26.2326 39.246 26.1397 39.6995 25.9944C39.7477 25.5904 39.5696 22.77 39.5401 22.1123C39.3645 18.1939 39.1266 14.0736 39.1257 10.1736H33.2755C33.344 11.3269 33.377 12.4677 33.4296 13.6264C33.4806 14.748 33.5782 15.8616 33.625 16.9657C33.2245 16.9768 32.8436 17.0314 32.4419 17.0627C32.1493 17.0857 31.4324 17.1835 31.2917 17.0218C31.2835 17.0103 30.9427 13.7564 30.8917 13.389C30.8148 12.835 30.6834 12.1615 30.6496 11.6148C30.62 11.1371 30.7008 10.1019 30.1124 10.203C29.6019 10.2907 29.7357 11.2771 29.6875 11.8104C29.5281 13.5772 29.4706 15.6409 29.223 17.3055L28.0314 17.3063C27.9542 16.0932 27.7249 14.8858 27.5187 13.7192L26.9503 10.1759L24.9001 10.1756L24.7874 15.2458C24.7462 18.9579 24.7187 20.2827 24.336 23.9755C23.5913 23.9238 23.6735 23.1589 23.483 22.4857C23.3119 21.8811 23.1194 21.2873 22.9433 20.6813L19.7642 9.96788C19.7253 9.95446 16.3603 10.1715 15.8596 10.1732L14.3068 10.1758C14.2364 11.4271 14.0621 12.7577 13.9632 14.0238C13.762 16.6 13.616 19.2497 13.3819 21.8041C13.2821 22.8945 13.4438 24.7457 12.5538 25.1444C12.1718 24.3982 11.3418 15.8256 11.1483 13.9312C11.0231 12.7055 10.8387 11.3966 10.7474 10.1759L5.37047 10.1925Z" fill="#95C12B"/>
<path fill-rule="evenodd" clip-rule="evenodd" d="M35.3347 7.4262C35.476 7.07381 36.1436 6.13827 36.3897 5.77541C36.8692 5.06868 39.4642 1.45448 39.6931 1.03865C39.6636 1.00652 39.6649 1.00644 39.609 0.963891L39.0839 0.657227C38.7596 1.17716 38.2103 1.68925 37.8109 2.19206C36.734 3.54765 35.0588 5.37897 34.5999 7.31658C34.9241 7.3122 35.0798 7.34487 35.3347 7.4262Z" fill="#95C12B"/>
<path fill-rule="evenodd" clip-rule="evenodd" d="M35.5344 8.12477C33.8608 7.68872 33.2909 8.29134 34.265 6.26185C34.6941 5.36773 35.639 4.0826 35.6638 3.5395C35.3858 3.29787 34.1255 3.06792 33.8066 2.99746C30.5281 2.27324 26.5821 2.80139 23.6497 4.3959C23.1239 4.68182 22.5823 5.0419 22.1828 5.38047C21.2814 6.14476 21.3516 6.24585 20.9779 6.58035C20.4967 6.47119 20.0852 6.29534 19.5404 6.19938C19.0256 6.10877 18.4783 6.05898 17.9379 6.06185C16.0131 6.07181 14.087 6.65738 12.5488 7.68465C11.9832 8.06246 10.9854 8.87932 10.7615 9.47236C11.2598 9.46112 11.3182 9.32654 11.3487 9.79623L11.6051 12.1061C11.7116 13.1325 11.8106 14.1672 11.9102 15.195C12.0097 16.2237 12.1197 17.2376 12.2575 18.2605C12.3429 18.8946 12.5523 20.6476 12.7546 21.1481C12.8964 20.3268 12.8954 19.1005 12.9634 18.2266C13.0369 17.2821 13.6425 9.89264 13.7557 9.58273C15.8712 9.52065 18.1911 9.29236 20.2724 9.35438C20.5342 10.2072 23.6874 21.1968 23.9639 21.6526C24.0791 21.3329 24.0871 16.4339 24.1141 15.6184C24.1807 13.5969 24.2255 11.603 24.3352 9.59397C25.4135 9.62106 26.3628 9.46346 27.4093 9.46731C27.8419 10.4901 28.225 15.352 28.7477 16.4201C28.8136 15.2408 28.8543 14.0778 28.9391 12.9026C28.9865 12.2465 29.0866 10.101 29.2425 9.5859L31.1088 9.60635C31.283 10.1018 31.4018 12.4178 31.4764 13.1185C31.6089 14.361 31.8076 15.2241 32.0716 16.3721L32.9218 16.3687L32.5691 9.58794C33.807 9.62347 38.9985 9.42793 39.7159 9.74123C39.8036 12.5807 39.9075 15.3956 40.0314 18.2271C40.121 20.2763 40.2349 22.5069 40.2702 24.5567C40.2801 25.1259 40.3645 26.2175 40.2887 26.7257C33.0981 26.7769 25.9245 27.1703 18.756 27.1974C18.7213 26.6865 18.6184 26.1454 18.6151 25.6785C17.4824 25.407 17.0618 26.5967 16.7074 27.3168C15.7147 27.3778 13.4788 27.3772 12.6814 27.6794C14.0193 28.4796 18.4505 29.5391 20.1438 29.8578C26.3348 30.8477 35.3576 30.8997 41.1029 28.1986C42.558 27.4827 44.1494 26.2808 45.2947 25.1458C46.4475 24.0034 47.5613 22.4959 48.2554 20.9158C50.3603 16.1238 49.8035 10.0838 45.0853 7.15152C42.9782 5.84202 41.5148 6.01946 39.4741 5.56885C38.5274 5.35973 38.4594 5.2683 37.8235 4.83398C37.5934 5.02794 36.1768 7.54961 35.5344 8.12477Z" fill="#F7A707"/>
<path fill-rule="evenodd" clip-rule="evenodd" d="M17.3957 16.7959C17.2488 17.0735 17.1964 17.5277 17.1542 17.8655C17.111 18.211 17.023 18.8725 17.5393 18.7373C18.1713 18.5718 17.5644 17.168 17.3957 16.7959Z" fill="#F7A707"/>
</svg>
