<svg width="22" height="22" viewBox="0 0 22 22" fill="none" xmlns="http://www.w3.org/2000/svg">
<path d="M9.55186 8.54167C10.4005 7.62118 10.8681 6.38645 10.8681 5.06459C10.8681 2.5478 9.07041 0 5.63396 0C4.0347 0 2.68554 0.5493 1.73212 1.58848C0.887585 2.50911 0.422607 3.74356 0.422607 5.06459C0.422607 7.58166 2.21267 10.1293 5.63396 10.1293C7.23918 10.1294 8.59425 9.58051 9.55186 8.54167ZM5.63396 2.35487C7.51685 2.35487 8.37435 3.76043 8.37435 5.06638C8.37435 5.77678 8.13531 6.43441 7.70087 6.91792C7.2162 7.45795 6.51184 7.74351 5.66449 7.74351C3.73398 7.74351 2.85453 6.33808 2.85453 5.03228C2.85453 3.69978 3.71409 2.35487 5.63396 2.35487Z" fill="#E8505B"/>
<path d="M18.1318 1.95364C17.8204 1.95927 17.3952 2.15344 17.1869 2.385L1.72776 19.5729C1.51953 19.8046 1.66704 20.1294 1.97847 20.1294H4.00181C4.31324 20.1294 4.73801 19.9395 4.9459 19.7076L20.3095 2.52318C20.5173 2.29107 20.5035 1.91344 19.9889 1.91357L18.1318 1.95364Z" fill="#E8505B"/>
<path d="M16.4422 12.0635C14.8738 12.0635 13.5503 12.6026 12.6149 13.622C11.7865 14.5248 11.3301 15.736 11.3301 17.0319C11.3301 19.5008 13.0861 22.0002 16.4423 22.0002C18.0174 22.0002 19.3463 21.4616 20.2859 20.4426C21.1185 19.5396 21.577 18.3283 21.577 17.0319C21.5769 14.563 19.8133 12.0635 16.4422 12.0635ZM16.4725 19.7202C14.5943 19.7202 13.7385 18.3098 13.7385 16.9999C13.7385 16.2866 13.9774 15.6265 14.4115 15.1411C14.8955 14.5995 15.5976 14.3132 16.4423 14.3132C18.3207 14.3132 19.176 15.7234 19.176 17.0337C19.176 17.7469 18.9371 18.4071 18.5033 18.8925C18.0192 19.434 17.317 19.7202 16.4725 19.7202Z" fill="#E8505B"/>
</svg>
