<svg width="12" height="13" viewBox="0 0 12 13" fill="none" xmlns="http://www.w3.org/2000/svg">
<g clip-path="url(#clip0_5021_7399)">
<path d="M11.5312 5.80518H6.46875V0.742676C6.46875 0.483785 6.25889 0.273926 6 0.273926C5.74111 0.273926 5.53125 0.483785 5.53125 0.742676V5.80518H0.46875C0.209859 5.80518 0 6.01504 0 6.27393C0 6.53282 0.209859 6.74268 0.46875 6.74268H5.53125V11.8052C5.53125 12.0641 5.74111 12.2739 6 12.2739C6.25889 12.2739 6.46875 12.0641 6.46875 11.8052V6.74268H11.5312C11.7901 6.74268 12 6.53282 12 6.27393C12 6.01504 11.7901 5.80518 11.5312 5.80518Z" fill="#666723"/>
</g>
<defs>
<clipPath id="clip0_5021_7399">
<rect width="12" height="12" fill="white" transform="translate(0 0.273926)"/>
</clipPath>
</defs>
</svg>
