<svg width="9" height="10" viewBox="0 0 9 10" fill="none" xmlns="http://www.w3.org/2000/svg">
<g clip-path="url(#clip0_5021_1495)">
<path d="M0.606129 8.40895H2.02029V9.77276C2.02029 9.83912 2.03917 9.89344 2.07713 9.9359C2.115 9.97863 2.16341 10 2.22237 10H3.27661C3.33132 10 3.37867 9.97863 3.41866 9.9359C3.45865 9.89344 3.47858 9.8391 3.47858 9.77276V8.40895H6.6667C6.72554 8.40895 6.77397 8.38785 6.81192 8.34512C6.84991 8.30242 6.86876 8.24806 6.86876 8.18171V7.27258C6.86876 7.20662 6.84991 7.15191 6.81192 7.10945C6.77407 7.06671 6.72554 7.04534 6.6667 7.04534H3.47848V6.20724H5.62494C6.46665 6.20724 7.15362 5.9187 7.68618 5.34081C8.21852 4.76352 8.48483 4.0178 8.48483 3.10362C8.48483 2.19004 8.21852 1.44431 7.68618 0.866431C7.15373 0.289124 6.46663 0 5.62494 0H2.22227C2.16328 0 2.11498 0.0213476 2.07703 0.0638272C2.03917 0.106542 2.02019 0.161234 2.02019 0.227218V4.69465H0.606129C0.547163 4.69465 0.498844 4.7171 0.460893 4.76207C0.423046 4.80706 0.404053 4.86032 0.404053 4.92185V5.97998C0.404053 6.04634 0.422924 6.1007 0.460893 6.14339C0.498861 6.18613 0.547058 6.20722 0.606129 6.20722H2.02029V7.04532H0.606129C0.547163 7.04532 0.498844 7.06669 0.460893 7.10943C0.423046 7.15189 0.404053 7.20648 0.404053 7.27256V8.18169C0.404053 8.24804 0.422924 8.3024 0.460893 8.3451C0.498844 8.38785 0.547146 8.40895 0.606129 8.40895ZM3.47848 1.51294H5.49868C5.94476 1.51294 6.30454 1.65967 6.5782 1.95322C6.85172 2.24679 6.98854 2.63044 6.98854 3.10374C6.98854 3.57727 6.85172 3.96103 6.5782 4.25425C6.30454 4.54806 5.94474 4.69479 5.49868 4.69479H3.47848V1.51294Z" fill="#575757"/>
</g>
<defs>
<clipPath id="clip0_5021_1495">
<rect width="8.88889" height="10" fill="white"/>
</clipPath>
</defs>
</svg>
